<svg id="About" xmlns="http://www.w3.org/2000/svg" viewBox="0 0 32.27 36.07"><defs><style>.cls-1{fill:#201600;}</style></defs><title>About</title><path class="cls-1" d="M20.34,4.26a8.88,8.88,0,1,0,8.88,8.88A8.89,8.89,0,0,0,20.34,4.26Zm0,15.78a6.9,6.9,0,1,1,6.9-6.9A6.91,6.91,0,0,1,20.34,20Z" transform="translate(-4.21 -3.41)"/><path class="cls-1" d="M20.34,22.86a9.73,9.73,0,1,1,9.73-9.73A9.74,9.74,0,0,1,20.34,22.86Zm0-17.75a8,8,0,1,0,8,8A8,8,0,0,0,20.34,5.11Zm0,15.78a7.75,7.75,0,1,1,7.75-7.75A7.76,7.76,0,0,1,20.34,20.89Zm0-13.81a6.05,6.05,0,1,0,6.05,6.05A6.06,6.06,0,0,0,20.34,7.09Z" transform="translate(-4.21 -3.41)"/><path class="cls-1" d="M23.19,24.3H17.5A14.73,14.73,0,0,0,5.06,31.13v7.51H35.63V31.13A14.73,14.73,0,0,0,23.19,24.3ZM33.59,36.6H7.1V31.75A12.68,12.68,0,0,1,17.5,26.34h5.68a12.68,12.68,0,0,1,10.41,5.41V36.6Z" transform="translate(-4.21 -3.41)"/><path class="cls-1" d="M36.48,39.49H4.21V30.87l.14-.21a15.66,15.66,0,0,1,13.15-7.2h5.68a15.66,15.66,0,0,1,13.15,7.2l.14.21ZM5.91,37.79H34.78v-6.4a13.77,13.77,0,0,0-11.59-6.23H17.5A13.77,13.77,0,0,0,5.91,31.39Zm28.53-.34H6.25v-6l.15-.22a13.57,13.57,0,0,1,11.1-5.77h5.68a13.57,13.57,0,0,1,11.1,5.77l.15.22ZM7.95,35.75H32.74V32a11.87,11.87,0,0,0-9.56-4.83H17.5A11.87,11.87,0,0,0,7.95,32Z" transform="translate(-4.21 -3.41)"/></svg>