<svg id="Delete" xmlns="http://www.w3.org/2000/svg" viewBox="0 0 38.71 38.75"><defs><style>.cls-1{fill:#201600;}</style></defs><title>Delete</title><path class="cls-1" d="M38.43,34.73,23.81,20.1,38.43,5.48a2.65,2.65,0,0,0,.81-2.09,2.87,2.87,0,0,0-.85-1.8,2.87,2.87,0,0,0-1.8-.85,2.65,2.65,0,0,0-2.09.81L19.87,16.17,5.28,1.58a2.7,2.7,0,0,0-3.89,0,2.7,2.7,0,0,0,0,3.89L15.94,20.1,1.35,34.7a2.7,2.7,0,0,0,0,3.89,2.7,2.7,0,0,0,3.89,0L19.87,24,34.5,38.66a2.66,2.66,0,0,0,1.89.82,2.63,2.63,0,0,0,.68-.09,3,3,0,0,0,2.08-2.08A2.62,2.62,0,0,0,38.43,34.73Z" transform="translate(-0.54 -0.73)"/></svg>