<svg id="Feed" data-name="Feed" xmlns="http://www.w3.org/2000/svg" viewBox="0 0 32.79 33.47"><defs><style>.cls-1{fill:#201600;}</style></defs><title>Feed</title><path class="cls-1" d="M29.82,3.43H10.28a6.63,6.63,0,0,0-6.63,6.63V30.28a6.63,6.63,0,0,0,6.63,6.63H29.82a6.63,6.63,0,0,0,6.63-6.63V10.06A6.63,6.63,0,0,0,29.82,3.43Zm-19.54,4H29.82a2.63,2.63,0,0,1,2.63,2.63V12H7.65V10.06A2.63,2.63,0,0,1,10.28,7.43ZM29.82,32.9H10.28a2.63,2.63,0,0,1-2.63-2.63V16H32.44v14.3A2.63,2.63,0,0,1,29.82,32.9Z" transform="translate(-3.65 -3.43)"/></svg>