<svg id="Instagram" xmlns="http://www.w3.org/2000/svg" viewBox="0 0 39.65 40.77"><defs><style>.cls-1{fill:#201600;}</style></defs><title>Instagram @shumichenko</title><circle class="cls-1" cx="19.83" cy="20.39" r="7.12"/><path class="cls-1" d="M30.56.75H12A10.53,10.53,0,0,0,1.43,11.28V31A10.53,10.53,0,0,0,12,41.53H30.56A10.53,10.53,0,0,0,41.09,31V11.28A10.53,10.53,0,0,0,30.56.75Zm-9.3,31.13A10.74,10.74,0,1,1,32,21.14,10.75,10.75,0,0,1,21.26,31.88Zm11.43-19a2.5,2.5,0,1,1,2.5-2.5A2.5,2.5,0,0,1,32.69,12.88Z" transform="translate(-1.43 -0.75)"/></svg>