<svg id="PHPUnit" xmlns="http://www.w3.org/2000/svg" viewBox="0 0 41.62 41.66"><title>PHPUnit</title><path d="M29,20.37a5.54,5.54,0,0,0,6,5.34c1.83-.21,2.6.71,2,2.42q-2,5.57-4,11.12a3.89,3.89,0,0,1-5.43,2.5Q15.44,37.37,3.41,33C.76,32-.14,30.06.82,27.4Q5.2,15.31,9.61,3.23A3.87,3.87,0,0,1,14.91.74Q27.11,5.15,39.3,9.62a3.87,3.87,0,0,1,2.46,5.32c-.2.56-.4,1.13-.62,1.68-.57,1.4-1.78,1.67-2.8.55A5.52,5.52,0,0,0,34,15.42a5,5,0,0,0-5,4.91Zm-1.28.05a6.35,6.35,0,0,1,7.92-6.09,6.23,6.23,0,0,1,3.53,1.9c.32.38.65.41.84-.14a23.18,23.18,0,0,0,.74-2.24A2.49,2.49,0,0,0,39.41,11a8.52,8.52,0,0,0-1.06-.44L14.59,1.95a2.7,2.7,0,0,0-3.83,1.8C9.86,6.19,9,8.65,8.09,11.1Q5,19.45,2,27.81c-.73,2-.14,3.26,1.84,4,4.24,1.56,8.49,3.08,12.73,4.63,3.78,1.38,7.58,2.71,11.33,4.17a2.83,2.83,0,0,0,3.87-1.86c1.29-3.7,2.66-7.37,4-11,.25-.68.13-.73-.62-.77a11.6,11.6,0,0,1-2.86-.37,6.61,6.61,0,0,1-4.58-6.13Z" transform="translate(-0.45 -0.43)"/><path d="M31.31,20.53a3,3,0,1,1,3,3h0A3,3,0,0,1,31.31,20.53Zm4.55,0a1.53,1.53,0,1,0-1.57,1.54h.09a1.52,1.52,0,0,0,1.48-1.55Zm4.54,3.64-2.09-1.06.74-1.49,2.16,1.06Z" transform="translate(-0.45 -0.43)"/><path d="M39.41,11a2.48,2.48,0,0,1,1.33,2.8A21.75,21.75,0,0,1,40,16.09c-.18.54-.51.52-.83.14a6.16,6.16,0,0,0-3.53-1.9,6.34,6.34,0,0,0-7.72,4.57,6,6,0,0,0-.2,1.52,6.61,6.61,0,0,0,4.57,6.13,11.47,11.47,0,0,0,2.87.37c.75,0,.86.09.61.77-1.33,3.68-2.7,7.35-4,11a2.83,2.83,0,0,1-3.87,1.86c-3.75-1.47-7.55-2.79-11.33-4.17-4.25-1.54-8.49-3.07-12.72-4.63-2-.73-2.58-2-1.85-4q3-8.37,6.08-16.72C9,8.64,9.86,6.18,10.77,3.74a2.71,2.71,0,0,1,3.83-1.8L38.36,10.6A9.75,9.75,0,0,1,39.41,11Z" transform="translate(-0.45 -0.43)" style="fill:#7e91ff"/><path d="M35.87,20.52A1.52,1.52,0,1,1,34.3,19a1.52,1.52,0,0,1,1.57,1.5Z" transform="translate(-0.45 -0.43)" style="fill:#fff"/></svg>