<svg id="Portfolio" xmlns="http://www.w3.org/2000/svg" viewBox="0 0 40.69 39.69"><defs><style>.cls-1{fill:#201600;}</style></defs><title>Portfolio</title><path class="cls-1" d="M35.24,8H29.81V5a4.17,4.17,0,0,0-4-4.35H17.64a4.17,4.17,0,0,0-4,4.35V8H8.26c-3.78,0-6.85,3.38-6.85,7.54V32.79c0,4.16,3.07,7.54,6.85,7.54h27c3.78,0,6.85-3.38,6.85-7.54V15.52C42.09,11.36,39,8,35.24,8ZM18.09,5.5h7.32V8H18.09Zm17.15,7.33a2.41,2.41,0,0,1,2.1,1.33c.38,1.89.2,3,0,3.32l-.08.09h0A15.46,15.46,0,0,1,34.6,18.7C30.36,20.28,28.07,21,28.06,21,22.54,22.64,22,22.7,21.48,22.7a42,42,0,0,1-5-1.29,48.89,48.89,0,0,1-8.35-3c-1-.48-1.6-.83-1.79-1.29a4,4,0,0,1-.22-1.82,5,5,0,0,1,.46-1.71,2.34,2.34,0,0,1,1.73-.79Zm0,22.67h-27a2.59,2.59,0,0,1-2.45-2.7V22.62l.55.27a53.74,53.74,0,0,0,9,3.23c4.86,1.34,5.2,1.42,6,1.43h.16c1.08,0,2.07-.22,7.65-1.89.1,0,2.42-.74,6.78-2.37.66-.25,1.21-.46,1.69-.65V32.79A2.59,2.59,0,0,1,35.24,35.49Z" transform="translate(-1.41 -0.65)"/></svg>