<svg id="Search" xmlns="http://www.w3.org/2000/svg" viewBox="0 0 34.93 34.86"><defs><style>.cls-1{fill:#fff343;}</style></defs><title>Search</title><path class="cls-1" d="M35.79,32.8l-9.72-9.72a15.19,15.19,0,0,0,2.82-7.62,1.91,1.91,0,0,0,.06-.56,1.91,1.91,0,0,0-.05-.55C28.25,7.13,22.78,1.14,15.18,1.14A13.92,13.92,0,0,0,1.41,14.91,13.9,13.9,0,0,0,14.53,28.64a13.26,13.26,0,0,0,8.95-2.84l9.66,9.66A1.88,1.88,0,0,0,35.79,32.8ZM5.16,14.91c0-12.94,19.35-12.83,20,0C24.51,27.73,5.16,27.85,5.16,14.91Z" transform="translate(-1.41 -1.14)"/></svg>