<svg id="SQL" data-name="SQL" xmlns="http://www.w3.org/2000/svg" viewBox="0 0 35.3 40.57"><title>SQL</title><ellipse cx="28.08" cy="7.66" rx="5.56" ry="2.31" style="fill:#fff"/><path d="M18.4,15.93" transform="translate(-3.61 -0.8)" style="fill:none;stroke:#fff;stroke-miterlimit:10;stroke-width:0.75px"/><path d="M19.07,16.92" transform="translate(-3.61 -0.8)" style="fill:none;stroke:#fff;stroke-miterlimit:10;stroke-width:0.75px"/><path d="M3.64,34V31.59C7.15,34.27,13.58,36,21.28,36s14.07-1.71,17.59-4.37V28.24C37,31,30.35,33.61,21.28,33.61S5.41,31,3.64,28.18V22.77c3.51,2.67,9.94,4.4,17.63,4.4s14-1.7,17.57-4.35V19.45c-1.86,2.75-8.52,5.33-17.56,5.33S5.41,22.15,3.64,19.36v-6.1c3.51,2.67,9.94,4.4,17.63,4.4s14-1.69,17.54-4.33V10c-1.89,2.74-8.53,5.3-17.53,5.3S5.41,12.64,3.64,9.85V8h0c.19-4,8-7.18,17.6-7.18h0C11.62.8,3.81,4,3.63,8h0V34c0,4,7.9,7.33,17.63,7.33h0C11.53,41.37,3.64,38.09,3.64,34Z" transform="translate(-3.61 -0.8)" style="fill:#fff"/><path d="M3.64,22.77v5.41c1.77,2.79,8.49,5.43,17.63,5.43S37,31,38.86,28.24l0,0,0-5.41,0,0c-3.52,2.64-9.92,4.35-17.57,4.35S7.15,25.44,3.64,22.77Z" transform="translate(-3.61 -0.8)" style="fill:#42b4e2"/><path d="M3.64,13.26v6.1c1.77,2.79,8.49,5.43,17.63,5.43S37,22.21,38.83,19.45l0,0,0-6.11,0,0C35.28,16,28.9,17.66,21.28,17.66S7.15,15.93,3.64,13.26Z" transform="translate(-3.61 -0.8)" style="fill:#42b4e2"/><path d="M38.91,31.6l0,0C35.35,34.28,28.94,36,21.28,36S7.15,34.27,3.64,31.59V34c0,4,7.89,7.33,17.62,7.33h0c9.74,0,17.63-3.28,17.63-7.33Z" transform="translate(-3.61 -0.8)" style="fill:#42b4e2"/><path d="M3.66,8h0V9.85c1.77,2.79,8.49,5.43,17.63,5.43S36.91,12.72,38.8,10l0,0V8h0C38.52,4,30.84.8,21.28.8h0C11.65.81,3.85,4,3.66,8Z" transform="translate(-3.61 -0.8)" style="fill:#42b4e2"/></svg>