<svg id="Symfony" xmlns="http://www.w3.org/2000/svg" viewBox="0 0 39.19 39.19"><defs><style>.cls-1{fill:#020608;}.cls-2{fill:#fff;}</style></defs><title>Symfony</title><path class="cls-1" d="M40.86,21.69A19.6,19.6,0,1,1,21.26,2.09,19.6,19.6,0,0,1,40.86,21.69Z" transform="translate(-1.66 -2.09)"/><path class="cls-2" style="fill: #fff;" d="M29.83,9.34a7,7,0,0,0-5,2.68,16.93,16.93,0,0,0-3.07,5.65c-1.23-1-2.17-2.31-4.15-2.88a5.07,5.07,0,0,0-4.59.84,4.12,4.12,0,0,0-1.4,2,4.63,4.63,0,0,0,1.17,4.25L14,23.22a1.83,1.83,0,0,1,.55,1.86,2.22,2.22,0,0,1-2.83,1.3c-.57-.17-1.38-.6-1.2-1.19a5.18,5.18,0,0,1,.34-.64,3.06,3.06,0,0,0,.15-.4,1.59,1.59,0,0,0-.9-2,1.34,1.34,0,0,0-1.84.93c-.34,1.11.19,3.12,3,4,3.33,1,6.15-.79,6.55-3.15.25-1.48-.42-2.58-1.64-4l-1-1.11A1.82,1.82,0,0,1,15,16.41a2.14,2.14,0,0,1,2.51-.62c1.8.49,2.6,1.74,3.94,2.74-.55,1.81-.91,3.63-1.24,5.26L20,25c-1,5-1.69,7.77-3.58,9.35a3.08,3.08,0,0,1-1.75.71.5.5,0,0,1-.58-.41c0-.3.25-.44.42-.58a1,1,0,0,0,.61-1.1,1.66,1.66,0,0,0-1.79-1.59,2.07,2.07,0,0,0-1.92,2.1c0,1.39,1.34,2.42,3.28,2.36,1,0,3.37-.46,5.66-3.18,2.67-3.12,3.41-6.7,4-9.32L25,19.89c.35,0,.72.07,1.12.08,3.32.07,5-1.65,5-2.9a1.35,1.35,0,0,0-1.22-1.49,1.38,1.38,0,0,0-1.31,1.07c-.15.7,1.06,1.33.11,1.94a5.27,5.27,0,0,1-3.57.49l.31-1.7c.63-3.23,1.4-7.2,4.35-7.3.21,0,1,0,1,.53,0,.17,0,.22-.24.61a1.4,1.4,0,0,0-.27.87,1.38,1.38,0,0,0,1.56,1.33,1.69,1.69,0,0,0,1.54-1.83C33.32,10.18,31.82,9.28,29.83,9.34Z" transform="translate(-1.66 -2.09)"/></svg>